<?xml version="1.0" encoding="utf-8"?>
<!-- Generator: Adobe Illustrator 15.1.0, SVG Export Plug-In . SVG Version: 6.00 Build 0)  -->
<!DOCTYPE svg PUBLIC "-//W3C//DTD SVG 1.0//EN" "http://www.w3.org/TR/2001/REC-SVG-20010904/DTD/svg10.dtd">
<svg version="1.0" id="Layer_1" xmlns="http://www.w3.org/2000/svg" xmlns:xlink="http://www.w3.org/1999/xlink" x="0px" y="0px"
	 width="322.583px" height="59.854px" viewBox="0 0 322.583 59.854" enable-background="new 0 0 322.583 59.854"
	 xml:space="preserve">
<g>
	<path fill="#0096D6" d="M60.415,0.301c0.821-0.724,2.028,0.387,1.256,1.111l-14.392,12.75l15.212,15.889
		c0.869,0.772-0.435,1.835-1.159,1.062L46.12,15.176l-6.423,5.698v9.708c0,0.435-0.338,0.772-0.821,0.772
		c-0.435,0-0.821-0.338-0.821-0.772V0.929c0-0.435,0.387-0.82,0.821-0.82c0.483,0,0.821,0.386,0.821,0.82v18.062L60.415,0.301z"/>
	<path fill="#0096D6" d="M63.075,7.545c-0.242-0.966,1.014-1.594,1.642-0.579L75.68,28.649L86.401,6.966
		c0.483-1.207,2.221-0.483,1.642,0.579L71.671,39.902c-0.627,1.304-1.98,0.676-1.545-0.531l4.492-9.079L63.075,7.545z"/>
	<path fill="#0096D6" d="M93.792,30.774c0,0.435-0.386,0.821-0.821,0.821c-0.531,0-0.87-0.387-0.87-0.821V0.446
		c0-0.435,0.338-0.821,0.87-0.821c0.435,0,0.821,0.387,0.821,0.821V30.774z"/>
	<path fill="#0096D6" d="M125.523,18.798c0.048,0.676-0.193,1.594-1.497,1.594h-21.732c0.241,2.076,1.014,4.057,2.463,5.747
		c2.028,2.415,5.071,3.67,8.21,3.719c2.656,0.048,5.361-0.772,7.582-2.463c0.87-0.677,2.028,0.289,1.111,1.207
		c-2.173,2.028-5.36,2.946-8.548,2.897c-3.767-0.048-7.486-1.448-9.707-4.298c-2.028-2.608-3.091-5.603-2.898-9.225
		c0.242-5.216,3.622-9.9,8.838-11.349c2.222-0.58,4.878-0.628,7.292,0C122.046,8.076,125.426,12.568,125.523,18.798z
		 M102.245,18.798h21.636c-0.097-5.312-2.946-9.32-7.775-10.625c-1.932-0.482-4.202-0.482-6.182,0.049
		C105.094,9.525,102.293,13.969,102.245,18.798z"/>
	<path fill="#0096D6" d="M146.245,21.599v8.887c0,1.062-1.594,1.062-1.594,0.048V1.219c0-0.482,0.387-0.821,0.821-0.821h10.963
		c8.162,0,12.315,5.506,12.315,10.963c0,5.603-4.009,10.238-12.267,10.238H146.245z M146.245,20.102h10.238
		c7.534,0,10.722-4.395,10.625-8.741c-0.048-4.732-4.008-9.466-10.625-9.466h-10.238V20.102z"/>
	<path fill="#0096D6" d="M185.029,6.241c2.076,0.049,4.057,0.531,5.795,1.546c1.594,1.062,2.801,2.56,3.525,4.491V7.4
		c0-0.531,0.29-0.869,0.821-0.869s0.869,0.338,0.869,0.869v23.133c0,0.531-0.338,0.869-0.869,0.869s-0.821-0.338-0.821-0.869v-4.878
		c-0.725,1.932-1.932,3.43-3.525,4.491c-3.043,1.787-6.906,2.222-10.576,0.725c-5.216-2.125-7.824-6.906-7.679-12.557
		c0.145-4.877,2.753-9.368,7.34-11.155C181.504,6.482,183.193,6.193,185.029,6.241z M194.35,21.067v-4.201
		c-0.193-3.525-1.835-6.423-5.022-7.969c-1.4-0.628-2.801-0.917-4.298-0.966c-4.105-0.048-8.259,2.125-9.901,6.134
		c-0.531,1.255-0.821,2.801-0.869,4.201c-0.145,3.719,1.111,7.147,4.25,9.659c1.69,1.304,3.767,2.028,5.94,2.173
		c1.69,0.048,3.284-0.338,4.878-1.062C192.515,27.491,194.156,24.593,194.35,21.067z"/>
	<path fill="#0096D6" d="M204.543,21.067c0,6.085,5.844,10.19,11.542,8.693c4.975-1.256,8.307-5.94,8.452-11.011V7.207
		c0-0.531,0.289-0.869,0.82-0.869s0.87,0.338,0.87,0.869v23.326c0,0.435-0.339,0.821-0.87,0.821s-0.82-0.338-0.82-0.869V23.53
		c-1.111,4.057-4.54,6.955-8.018,7.872c-6.229,1.353-13.667-2.317-13.667-10.335V7.207c0-0.531,0.29-0.869,0.821-0.869
		s0.869,0.338,0.869,0.869V21.067z"/>
	<path fill="#0096D6" d="M235.842,30.774c0,0.435-0.387,0.821-0.821,0.821c-0.531,0-0.869-0.387-0.869-0.821V0.446
		c0-0.435,0.338-0.821,0.869-0.821c0.435,0,0.821,0.387,0.821,0.821V30.774z"/>
	<path fill="#0096D6" d="M244.923,25.559c0.628,2.995,5.216,4.396,9.466,4.396c2.897,0,9.079-1.208,9.079-5.603
		c0-8.5-19.801-0.725-19.801-11.156c0-4.636,5.747-7.051,10.238-7.051c3.67,0,8.789,0.628,10.432,4.926
		c0.338,1.353-1.256,1.643-1.594,0.628c-1.353-3.622-6.182-3.96-8.838-3.96c-3.478,0-8.597,1.497-8.597,5.457
		c0,8.162,19.85,0.628,19.85,11.156c0,5.795-6.858,7.147-10.77,7.147c-3.961,0-10.094-0.966-11.012-5.65
		C242.991,24.593,244.777,24.255,244.923,25.559z"/>
	<path fill="#0096D6" d="M294.668,18.798c0.049,0.676-0.192,1.594-1.497,1.594h-21.732c0.242,2.076,1.015,4.057,2.464,5.747
		c2.028,2.415,5.07,3.67,8.21,3.719c2.655,0.048,5.36-0.772,7.582-2.463c0.869-0.677,2.028,0.289,1.11,1.207
		c-2.173,2.028-5.36,2.946-8.548,2.897c-3.767-0.048-7.485-1.448-9.707-4.298c-2.028-2.608-3.091-5.603-2.897-9.225
		c0.241-5.216,3.622-9.9,8.838-11.349c2.221-0.58,4.877-0.628,7.292,0C291.191,8.076,294.571,12.568,294.668,18.798z
		 M271.391,18.798h21.636c-0.097-5.312-2.946-9.32-7.775-10.625c-1.932-0.482-4.201-0.482-6.182,0.049
		C274.24,9.525,271.438,13.969,271.391,18.798z"/>
	<path fill="#0096D6" d="M320.895,16.817c0-6.277-5.844-10.238-11.543-8.741c-4.974,1.256-8.307,5.94-8.451,11.012V30.63
		c0,0.531-0.29,0.869-0.821,0.869s-0.869-0.338-0.869-0.869V7.304c0-0.435,0.338-0.821,0.869-0.821s0.821,0.339,0.821,0.87v6.664
		c1.11-4.057,4.443-6.616,7.92-7.534c6.424-1.642,13.764,2.174,13.764,10.335V30.63c0,0.531-0.289,0.869-0.82,0.869
		s-0.869-0.338-0.869-0.869V16.817z"/>
</g>
<g>
	<path fill="#0096D6" d="M84.561,51.286c0.349,1.665,2.9,2.444,5.264,2.444c1.611,0,5.049-0.672,5.049-3.115
		c0-4.727-11.011-0.403-11.011-6.204c0-2.578,3.196-3.921,5.693-3.921c2.041,0,4.888,0.35,5.801,2.739
		c0.188,0.752-0.698,0.913-0.886,0.349c-0.752-2.014-3.438-2.201-4.915-2.201c-1.934,0-4.78,0.832-4.78,3.034
		c0,4.538,11.038,0.349,11.038,6.204c0,3.223-3.813,3.975-5.989,3.975c-2.202,0-5.613-0.537-6.123-3.143
		C83.487,50.749,84.48,50.561,84.561,51.286z"/>
	<path fill="#0096D6" d="M99.896,52.199c-1.182-1.424-1.719-3.115-1.611-5.129c0.242-2.874,2.014-5.506,4.915-6.312
		c1.235-0.322,2.712-0.349,4.055,0c2.9,0.806,4.7,3.438,4.941,6.312c0.107,2.014-0.43,3.705-1.611,5.129
		c-1.316,1.558-3.223,2.391-5.344,2.391S101.211,53.757,99.896,52.199z M103.521,41.672c-4.163,1.102-5.613,6.66-2.874,9.937
		c1.101,1.315,2.793,2.067,4.592,2.067c1.826,0,3.545-0.752,4.646-2.067c2.739-3.276,1.235-8.835-2.927-9.937
		C105.884,41.403,104.622,41.377,103.521,41.672z"/>
	<path fill="#0096D6" d="M117.513,41.859v12.193c0,0.697-0.94,0.725-0.94,0V41.859h-2.148c-0.591,0-0.564-0.778,0.027-0.778h2.122
		V40.92c0-2.283,0.886-4.27,3.733-4.27c0.994,0,1.826,0.215,2.498,0.725c0.51,0.35,0,1.047-0.51,0.645
		c-0.457-0.402-1.316-0.51-1.96-0.51c-2.31,0-2.82,1.449-2.82,3.41v0.161h3.357c0.618,0,0.618,0.778,0,0.778H117.513z"/>
	<path fill="#0096D6" d="M131.021,40.732c0.698,0,0.698,0.859,0,0.859h-3.733v8.244c0,1.934,0.322,3.921,2.82,3.921
		c0.51,0,1.235-0.188,1.611-0.403c0.564-0.268,1.074,0.43,0.349,0.807c-0.671,0.349-1.289,0.456-1.96,0.456
		c-3.008,0-3.733-2.282-3.733-4.78v-8.244h-2.498c-0.725,0-0.725-0.859,0-0.859h2.498v-3.438c0-0.592,0.913-0.564,0.913,0v3.438
		H131.021z"/>
	<path fill="#0096D6" d="M134.431,40.785l5.344,12.166l5.156-10.555c0.188-0.402,0.725-0.402,0.913,0l5.237,10.582l5.21-12.059
		c0.134-0.51,1.155-0.376,0.859,0.35l-5.667,12.998c-0.161,0.322-0.698,0.322-0.859,0l-5.183-10.742l-5.291,10.742
		c-0.161,0.322-0.725,0.322-0.913,0c-2.256-5.533-3.384-7.762-5.72-13.105C133.303,40.463,134.243,40.275,134.431,40.785z"/>
	<path fill="#0096D6" d="M165.69,40.544c1.155,0.026,2.256,0.296,3.223,0.859c0.886,0.591,1.558,1.423,1.96,2.497v-2.712
		c0-0.296,0.161-0.483,0.457-0.483s0.483,0.188,0.483,0.483v12.864c0,0.295-0.188,0.482-0.483,0.482s-0.457-0.188-0.457-0.482V51.34
		c-0.403,1.074-1.074,1.906-1.96,2.498c-1.692,0.993-3.84,1.234-5.881,0.402c-2.9-1.182-4.351-3.84-4.27-6.982
		c0.081-2.713,1.531-5.21,4.082-6.203C163.73,40.678,164.67,40.518,165.69,40.544z M170.874,48.789v-2.337
		c-0.107-1.96-1.021-3.571-2.793-4.431c-0.779-0.35-1.558-0.511-2.39-0.537c-2.283-0.027-4.592,1.182-5.505,3.41
		c-0.295,0.698-0.457,1.558-0.483,2.336c-0.081,2.068,0.618,3.975,2.363,5.371c0.94,0.726,2.095,1.129,3.303,1.209
		c0.94,0.027,1.826-0.188,2.712-0.591C169.853,52.36,170.766,50.749,170.874,48.789z"/>
	<path fill="#0096D6" d="M177.694,44.115c0.591-2.041,2.632-3.438,4.86-3.438c0.296,0,0.484,0.162,0.484,0.457
		s-0.188,0.457-0.484,0.457c-3.438,0-4.86,2.927-4.86,6.176v6.204c0,0.296-0.215,0.483-0.457,0.483
		c-0.295,0-0.483-0.188-0.483-0.483V41.135c0-0.242,0.188-0.457,0.483-0.457c0.242,0,0.457,0.215,0.457,0.457V44.115z"/>
	<path fill="#0096D6" d="M198.829,47.526c0.026,0.376-0.107,0.886-0.833,0.886h-12.084c0.134,1.155,0.563,2.256,1.369,3.196
		c1.128,1.343,2.82,2.041,4.565,2.067c1.478,0.027,2.981-0.43,4.216-1.369c0.484-0.376,1.129,0.161,0.618,0.672
		c-1.208,1.127-2.981,1.638-4.753,1.611c-2.096-0.027-4.163-0.807-5.398-2.391c-1.128-1.45-1.719-3.115-1.611-5.129
		c0.135-2.9,2.014-5.506,4.914-6.312c1.236-0.322,2.713-0.349,4.056,0C196.896,41.564,198.775,44.062,198.829,47.526z
		 M185.885,47.526h12.031c-0.054-2.954-1.639-5.183-4.324-5.908c-1.074-0.269-2.336-0.269-3.438,0.026
		C187.469,42.37,185.912,44.841,185.885,47.526z"/>
	<path fill="#0096D6" d="M222.784,47.526c0.026,0.376-0.107,0.886-0.833,0.886h-12.084c0.134,1.155,0.563,2.256,1.369,3.196
		c1.128,1.343,2.82,2.041,4.565,2.067c1.478,0.027,2.981-0.43,4.216-1.369c0.484-0.376,1.129,0.161,0.618,0.672
		c-1.208,1.127-2.981,1.638-4.753,1.611c-2.096-0.027-4.163-0.807-5.398-2.391c-1.128-1.45-1.719-3.115-1.611-5.129
		c0.135-2.9,2.014-5.506,4.914-6.312c1.236-0.322,2.713-0.349,4.056,0C220.851,41.564,222.73,44.062,222.784,47.526z M209.84,47.526
		h12.031c-0.054-2.954-1.639-5.183-4.324-5.908c-1.074-0.269-2.336-0.269-3.438,0.026C211.424,42.37,209.867,44.841,209.84,47.526z"
		/>
	<path fill="#0096D6" d="M238.414,46.426c0-3.492-3.25-5.693-6.419-4.861c-2.767,0.698-4.619,3.303-4.7,6.123v6.418
		c0,0.296-0.16,0.484-0.456,0.484s-0.483-0.188-0.483-0.484V41.135c0-0.242,0.188-0.457,0.483-0.457s0.456,0.188,0.456,0.484v3.705
		c0.618-2.256,2.471-3.679,4.404-4.189c3.572-0.912,7.654,1.209,7.654,5.748v7.68c0,0.296-0.161,0.484-0.457,0.484
		c-0.295,0-0.482-0.188-0.482-0.484V46.426z"/>
	<path fill="#0096D6" d="M255.923,53.972c0,3.867-2.9,5.882-6.553,5.882c-2.015,0-3.652-0.403-5.103-1.773
		c-0.51-0.51,0.135-1.047,0.617-0.671c1.559,1.182,2.686,1.53,4.485,1.53c2.954,0,5.612-1.584,5.612-4.968v-2.497
		c-0.886,2.094-2.953,3.168-5.183,3.223c-1.021,0.026-1.96-0.135-2.847-0.511c-2.551-0.993-4.002-3.491-4.082-6.204
		c-0.08-3.142,1.369-5.801,4.27-6.982c2.041-0.832,4.189-0.59,5.882,0.403c0.886,0.591,1.558,1.315,1.96,2.39v-2.658
		c0-0.295,0.162-0.483,0.457-0.483s0.483,0.188,0.483,0.483V53.972z M249.478,41.43c-1.208,0.081-2.363,0.484-3.304,1.209
		c-1.745,1.396-2.443,3.303-2.363,5.371c0.027,0.779,0.188,1.639,0.484,2.336c0.912,2.229,3.223,3.438,5.505,3.411
		c3.008-0.107,4.995-2.202,5.183-4.968v-2.337c-0.107-1.96-1.02-3.571-2.793-4.431C251.304,41.618,250.418,41.403,249.478,41.43z"/>
	<path fill="#0096D6" d="M261.24,38.906c0,0.59-0.994,0.59-0.994,0v-1.504c0-0.592,0.994-0.592,0.994,0V38.906z M260.273,41.135
		c0-0.645,0.939-0.645,0.939-0.027v13.079c0,0.645-0.939,0.645-0.939,0V41.135z"/>
	<path fill="#0096D6" d="M277.621,46.426c0-3.492-3.249-5.693-6.418-4.861c-2.766,0.698-4.619,3.303-4.699,6.123v6.418
		c0,0.296-0.162,0.484-0.457,0.484s-0.483-0.188-0.483-0.484V41.135c0-0.242,0.188-0.457,0.483-0.457s0.457,0.188,0.457,0.484v3.705
		c0.617-2.256,2.471-3.679,4.404-4.189c3.571-0.912,7.653,1.209,7.653,5.748v7.68c0,0.296-0.161,0.484-0.456,0.484
		c-0.296,0-0.484-0.188-0.484-0.484V46.426z"/>
	<path fill="#0096D6" d="M295.937,47.526c0.026,0.376-0.107,0.886-0.833,0.886H283.02c0.134,1.155,0.563,2.256,1.369,3.196
		c1.128,1.343,2.82,2.041,4.565,2.067c1.478,0.027,2.981-0.43,4.216-1.369c0.484-0.376,1.129,0.161,0.618,0.672
		c-1.208,1.127-2.981,1.638-4.753,1.611c-2.096-0.027-4.163-0.807-5.398-2.391c-1.128-1.45-1.719-3.115-1.611-5.129
		c0.135-2.9,2.014-5.506,4.914-6.312c1.236-0.322,2.713-0.349,4.056,0C294.003,41.564,295.883,44.062,295.937,47.526z
		 M282.992,47.526h12.031c-0.054-2.954-1.639-5.183-4.324-5.908c-1.074-0.269-2.336-0.269-3.438,0.026
		C284.576,42.37,283.02,44.841,282.992,47.526z"/>
	<path fill="#0096D6" d="M312.561,47.526c0.027,0.376-0.107,0.886-0.832,0.886h-12.086c0.135,1.155,0.564,2.256,1.37,3.196
		c1.128,1.343,2.819,2.041,4.565,2.067c1.477,0.027,2.98-0.43,4.217-1.369c0.482-0.376,1.127,0.161,0.617,0.672
		c-1.209,1.127-2.98,1.638-4.754,1.611c-2.094-0.027-4.162-0.807-5.397-2.391c-1.128-1.45-1.719-3.115-1.611-5.129
		c0.134-2.9,2.015-5.506,4.915-6.312c1.234-0.322,2.712-0.349,4.055,0C310.627,41.564,312.507,44.062,312.561,47.526z
		 M299.616,47.526h12.031c-0.054-2.954-1.638-5.183-4.323-5.908c-1.074-0.269-2.337-0.269-3.438,0.026
		C301.201,42.37,299.643,44.841,299.616,47.526z"/>
	<path fill="#0096D6" d="M317.099,44.115c0.591-2.041,2.632-3.438,4.86-3.438c0.296,0,0.484,0.162,0.484,0.457
		s-0.188,0.457-0.484,0.457c-3.438,0-4.86,2.927-4.86,6.176v6.204c0,0.296-0.215,0.483-0.456,0.483
		c-0.296,0-0.484-0.188-0.484-0.483V41.135c0-0.242,0.188-0.457,0.484-0.457c0.241,0,0.456,0.215,0.456,0.457V44.115z"/>
</g>
<rect x="11.004" y="22.044" fill="#CBCACA" width="8.972" height="9.117"/>
<rect x="22.008" y="22.044" fill="#CBCACA" width="8.972" height="9.117"/>
<rect y="11.01" fill="#CBCACA" width="8.972" height="9.119"/>
<rect x="22.008" y="11.01" fill="#CBCACA" width="8.972" height="9.119"/>
<rect x="22.008" y="-0.023" fill="#CBCACA" width="8.972" height="9.118"/>
</svg>
